<?xml version="1.0" encoding="UTF-8" standalone="no"?>
<svg
   xmlns:dc="http://purl.org/dc/elements/1.1/"
   xmlns:cc="http://creativecommons.org/ns#"
   xmlns:rdf="http://www.w3.org/1999/02/22-rdf-syntax-ns#"
   xmlns:svg="http://www.w3.org/2000/svg"
   xmlns="http://www.w3.org/2000/svg"
   xmlns:sodipodi="http://sodipodi.sourceforge.net/DTD/sodipodi-0.dtd"
   xmlns:inkscape="http://www.inkscape.org/namespaces/inkscape"
   inkscape:version="1.0 (4035a4fb49, 2020-05-01)"
   sodipodi:docname="mullvad-disconnected-symbolic.svg"
   id="svg3389"
   version="1.1"
   viewBox="0 0 16 16"
   height="16px"
   width="16px">
  <metadata
     id="metadata3395">
    <rdf:RDF>
      <cc:Work
         rdf:about="">
        <dc:format>image/svg+xml</dc:format>
        <dc:type
           rdf:resource="http://purl.org/dc/dcmitype/StillImage" />
      </cc:Work>
    </rdf:RDF>
  </metadata>
  <defs
     id="defs3393" />
  <sodipodi:namedview
     inkscape:current-layer="svg3389"
     inkscape:window-maximized="1"
     inkscape:window-y="0"
     inkscape:window-x="0"
     inkscape:cy="7.0813932"
     inkscape:cx="4.8329721"
     inkscape:zoom="63.069437"
     showgrid="false"
     id="namedview3391"
     inkscape:window-height="1009"
     inkscape:window-width="1920"
     inkscape:pageshadow="2"
     inkscape:pageopacity="0"
     guidetolerance="10"
     gridtolerance="10"
     objecttolerance="10"
     borderopacity="1"
     bordercolor="#666666"
     pagecolor="#ffffff" />
  <g
     style="opacity:0.34954339"
     id="surface1">
    <path
       id="path3384"
       d="M 8 0 C 3.578125 0 0 3.578125 0 8 C 0 12.421875 3.585938 16 8 16 C 12.414062 16 16 12.421875 16 8 C 16 3.578125 12.421875 0 8 0 Z M 9.09375 2.253906 C 10.367188 2.242188 11.796875 3.109375 12.226562 4.226562 C 12.476562 4.890625 12.402344 5.617188 12.1875 6.285156 C 12.007812 6.828125 11.363281 7.613281 11.605469 8.210938 C 11.507812 8.183594 9.507812 7.5625 8.949219 7.207031 C 8.058594 6.652344 7.253906 5.964844 6.652344 5.433594 L 6.632812 5.414062 L 4.597656 4.453125 C 4.574219 4.441406 4.546875 4.425781 4.527344 4.414062 C 4.820312 4.414062 5.929688 4.546875 6.421875 4.441406 C 6.328125 4.179688 6.351562 3.84375 6.484375 3.527344 C 6.675781 3.089844 7.039062 2.800781 7.378906 2.800781 C 7.449219 2.800781 7.511719 2.8125 7.574219 2.835938 C 7.773438 2.660156 8 2.515625 8.253906 2.414062 C 8.515625 2.308594 8.800781 2.257812 9.09375 2.253906 Z M 2.015625 4.25 L 1.96875 5.226562 C 1.96875 5.226562 1.984375 5.25 2.027344 5.261719 L 2.6875 4.472656 L 2.253906 5.207031 C 2.925781 5.074219 4.027344 5.042969 5.199219 5.128906 L 6.421875 5.726562 C 7.03125 6.265625 7.839844 6.953125 8.746094 7.519531 C 9.394531 7.925781 10.066406 8.125 10.773438 8.347656 L 10.964844 8.40625 C 11.015625 8.417969 11.066406 8.429688 11.117188 8.449219 L 11.40625 8.875 L 11.160156 8.875 L 11.679688 9.5 L 11.207031 9.425781 C 11.210938 9.46875 11.679688 10.007812 11.679688 10.007812 L 11.304688 10.058594 C 11.320312 10.101562 11.6875 10.558594 11.6875 10.558594 L 11.40625 10.539062 C 11.425781 10.609375 11.859375 11.304688 11.859375 11.3125 C 11.859375 11.320312 11.707031 11.273438 11.605469 11.242188 C 11.964844 12.046875 12.484375 12.207031 12.511719 12.535156 C 10.738281 14.816406 6.066406 15.171875 3.996094 12.617188 C 3.953125 12.410156 4.410156 12.058594 4.699219 11.667969 C 4.839844 11.476562 4.964844 11.273438 5.054688 11.066406 C 5.179688 10.679688 4.914062 10.710938 4.738281 10.382812 C 4.5625 10.050781 4.996094 9.988281 4.996094 9.988281 C 5.117188 10.066406 5.25 10.128906 5.382812 10.179688 C 5.460938 10.203125 5.535156 10.230469 5.617188 10.25 C 5.699219 10.269531 5.78125 10.28125 5.867188 10.292969 C 6.03125 10.316406 6.199219 10.316406 6.367188 10.3125 C 6.449219 10.300781 6.53125 10.292969 6.613281 10.28125 C 6.695312 10.269531 6.777344 10.25 6.859375 10.230469 C 6.941406 10.210938 7.019531 10.183594 7.101562 10.160156 C 7.175781 10.132812 7.257812 10.101562 7.335938 10.070312 C 7.492188 10.007812 7.644531 9.933594 7.785156 9.84375 C 7.859375 9.800781 7.925781 9.753906 7.992188 9.703125 C 8.0625 9.660156 8.125 9.601562 8.191406 9.550781 C 8.246094 9.496094 8.308594 9.4375 8.367188 9.378906 C 8.417969 9.332031 8.460938 9.28125 8.507812 9.230469 L 8.96875 9.347656 L 8.511719 9.046875 L 8.480469 9.027344 L 8.417969 9.0625 C 8.347656 9.109375 8.277344 9.144531 8.214844 9.191406 C 8.152344 9.234375 8.082031 9.273438 8.019531 9.316406 C 7.957031 9.355469 7.890625 9.398438 7.824219 9.4375 C 7.753906 9.476562 7.691406 9.519531 7.621094 9.558594 C 7.550781 9.597656 7.488281 9.640625 7.417969 9.671875 C 7.355469 9.710938 7.285156 9.742188 7.214844 9.78125 C 7.144531 9.816406 7.074219 9.84375 7.003906 9.875 C 6.9375 9.898438 6.859375 9.933594 6.789062 9.949219 C 6.714844 9.976562 6.644531 9.996094 6.570312 10.015625 C 6.5 10.039062 6.421875 10.050781 6.347656 10.066406 C 6.269531 10.078125 6.195312 10.089844 6.117188 10.097656 C 6.042969 10.101562 5.964844 10.109375 5.890625 10.109375 C 5.816406 10.109375 5.734375 10.109375 5.65625 10.101562 C 5.582031 10.097656 5.496094 10.089844 5.421875 10.078125 C 5.277344 10.050781 5.128906 10.019531 4.984375 9.964844 C 4.914062 9.875 4.8125 9.785156 4.695312 9.703125 C 3.558594 8.945312 2.316406 7.523438 1.8125 6.5 L 1.640625 7.417969 C 1.640625 7.417969 1.679688 6.199219 1.679688 6.195312 L 1.070312 7.042969 L 1.519531 6.132812 C 1.261719 6.101562 1.0625 5.878906 1.0625 5.613281 C 1.0625 5.519531 1.085938 5.433594 1.128906 5.359375 C 1.214844 5.1875 1.390625 5.074219 1.597656 5.074219 C 1.664062 5.074219 1.742188 5.09375 1.804688 5.117188 C 1.804688 5.117188 1.804688 5.121094 1.808594 5.121094 Z M 2.015625 4.25 "
       style="stroke:none;fill-rule:nonzero;fill:#bebebe;fill-opacity:1" />
    <path
       id="path3386"
       d="M 7.429688 3.078125 C 7.46875 3.078125 7.507812 3.085938 7.542969 3.105469 C 7.644531 3.148438 7.722656 3.261719 7.746094 3.414062 C 7.777344 3.597656 7.753906 3.8125 7.65625 4.015625 C 7.519531 4.339844 7.246094 4.574219 7.019531 4.574219 C 6.980469 4.574219 6.941406 4.566406 6.910156 4.554688 C 6.816406 4.515625 6.765625 4.425781 6.738281 4.359375 C 6.664062 4.167969 6.683594 3.890625 6.789062 3.636719 C 6.9375 3.3125 7.203125 3.078125 7.429688 3.078125 M 7.429688 2.886719 C 7.125 2.886719 6.789062 3.167969 6.613281 3.566406 C 6.480469 3.863281 6.460938 4.1875 6.554688 4.433594 C 6.613281 4.578125 6.707031 4.679688 6.828125 4.738281 C 6.886719 4.761719 6.949219 4.777344 7.019531 4.777344 C 7.320312 4.777344 7.65625 4.496094 7.828125 4.097656 C 7.9375 3.859375 7.96875 3.605469 7.929688 3.382812 C 7.890625 3.160156 7.777344 3.003906 7.613281 2.933594 C 7.5625 2.902344 7.5 2.886719 7.429688 2.886719 Z M 7.429688 2.886719 "
       style="stroke:none;fill-rule:nonzero;fill:#bebebe;fill-opacity:1;opacity:0.34975454" />
  </g>
</svg>
